<svg xmlns="http://www.w3.org/2000/svg" xmlns:xlink="http://www.w3.org/1999/xlink" version="1.1" x="0px" y="0px" viewBox="0 0 100 125" enable-background="new 0 0 100 100" xml:space="preserve"><g><path fill="#000000" d="M50.355,94.919c-14.394,0-26.106-11.71-26.106-26.104V31.187c0-14.394,11.711-26.106,26.106-26.106   s26.104,11.711,26.104,26.106v37.628C76.459,83.209,64.75,94.919,50.355,94.919z M50.355,6.486   c-13.621,0-24.701,11.081-24.701,24.701v37.628c0,13.619,11.08,24.7,24.701,24.7c13.619,0,24.7-11.08,24.7-24.7V31.187   C75.055,17.567,63.975,6.486,50.355,6.486z"/><rect x="49.653" y="14.977" fill="#000000" width="1.405" height="25.189"/></g><text x="0" y="115" fill="#000000" font-size="5px" font-weight="bold" font-family="'Helvetica Neue', Helvetica, Arial-Unicode, Arial, Sans-serif">Created by Yannis Kostis</text><text x="0" y="120" fill="#000000" font-size="5px" font-weight="bold" font-family="'Helvetica Neue', Helvetica, Arial-Unicode, Arial, Sans-serif">from the Noun Project</text></svg>