<svg xmlns="http://www.w3.org/2000/svg" xmlns:xlink="http://www.w3.org/1999/xlink" version="1.0" x="0px" y="0px" viewBox="0 0 100 125" enable-background="new 0 0 100 100" xml:space="preserve"><path d="M94.5594406,34.4500237L54.4596405,63.5315933c-1.0255966,0.745018-2.2370758,1.1169968-3.4475975,1.1169968  s-2.4221077-0.3719788-3.4466438-1.1169968L6.3381801,33.6312675c-0.5652013,1.4525871-0.8852549,3.0132713-0.8852549,4.6301384  V71.89608c0,3.364502,1.3642712,6.6572723,3.7458596,9.0357666c2.3784637,2.3815689,5.6691208,3.7437134,9.0357485,3.7437134  h64.0534897c3.3666229,0,6.65728-1.3642731,9.0388489-3.7437134c2.3784866-2.3784943,3.7406235-5.6712646,3.7406235-9.0357666  V37.9808273C95.0674973,36.7672195,94.888855,35.5826607,94.5594406,34.4500237z M92.806488,21.2144032  c-2.344101-3.3978119-6.244751-5.5382671-10.5184631-5.5382671H18.2355976c-3.9568329,0-7.6091471,1.8474369-9.990715,4.8307018  L51.012043,51.5240517L92.806488,21.2144032z"/><text x="0" y="115" fill="#000000" font-size="5px" font-weight="bold" font-family="'Helvetica Neue', Helvetica, Arial-Unicode, Arial, Sans-serif">Created by Alex Tai</text><text x="0" y="120" fill="#000000" font-size="5px" font-weight="bold" font-family="'Helvetica Neue', Helvetica, Arial-Unicode, Arial, Sans-serif">from the Noun Project</text></svg>