<svg xmlns="http://www.w3.org/2000/svg" xmlns:xlink="http://www.w3.org/1999/xlink" version="1.1" x="0px" y="0px" viewBox="0 0 100 125" style="enable-background:new 0 0 100 100;" xml:space="preserve"><path d="M16.4,87L16.4,87c1.1,1,2.7,0.9,3.7-0.2l12.2-13.5c6.3,4.5,14.1,6.8,22.6,5.8C70,77.5,82.1,65.4,83.7,50.3  C85.8,30,69.2,13,49.1,14.2c-16.2,1-29.4,14.2-30.4,30.5c-0.6,9.9,3.2,18.9,9.6,25.2L16.2,83.3C15.3,84.4,15.4,86,16.4,87z   M51.2,74.1c-15.1,0-27.3-12.3-27.3-27.3c0-15.1,12.3-27.3,27.3-27.3s27.3,12.3,27.3,27.3C78.6,61.9,66.3,74.1,51.2,74.1z"/><text x="0" y="115" fill="#000000" font-size="5px" font-weight="bold" font-family="'Helvetica Neue', Helvetica, Arial-Unicode, Arial, Sans-serif">Created by Michelle Fosse</text><text x="0" y="120" fill="#000000" font-size="5px" font-weight="bold" font-family="'Helvetica Neue', Helvetica, Arial-Unicode, Arial, Sans-serif">from the Noun Project</text></svg>